<svg width="65" height="65" viewBox="0 0 65 65" fill="none" xmlns="http://www.w3.org/2000/svg">
<rect width="65" height="65" fill="black"/>
<rect x="49" y="49" width="15" height="15" fill="#FF7A7A"/>
<rect x="49" y="33" width="15" height="15" fill="white"/>
<rect x="49" y="17" width="15" height="15" fill="white"/>
<rect x="49" y="1" width="15" height="15" fill="white"/>
<rect x="33" y="1" width="15" height="15" fill="white"/>
<rect x="33" y="17" width="15" height="15" fill="white"/>
<rect x="33" y="33" width="15" height="15" fill="white"/>
<rect x="33" y="49" width="15" height="15" fill="white"/>
<rect x="17" y="49" width="15" height="15" fill="white"/>
<rect x="17" y="33" width="15" height="15" fill="white"/>
<rect x="17" y="17" width="15" height="15" fill="white"/>
<rect x="1" y="17" width="15" height="15" fill="white"/>
<rect x="1" y="33" width="15" height="15" fill="white"/>
<rect x="1" y="49" width="15" height="15" fill="white"/>
<rect x="17" y="1" width="15" height="15" fill="white"/>
<rect x="1" y="1" width="15" height="15" fill="white"/>
</svg>


