<svg width="100" height="100" viewBox="0 0 45 45" fill="#ffffff" xmlns="http://www.w3.org/2000/svg" xmlns:xlink="http://www.w3.org/1999/xlink">
<path d="M26.018 10c0 7.742-6.276 14.018-14.018 14.018C12 16.276 18.276 10 26.018 10zM12 24.018c7.742 0 14.018 6.276 14.018 14.018C18.276 38.036 12 31.76 12 24.018zm14.018 14.018c0-7.742 6.276-14.018 14.018-14.018 0 7.742-6.276 14.018-14.018 14.018zm12.85-26.868c0 6.452-5.23 11.682-11.682 11.682 0-6.452 5.23-11.682 11.681-11.682z" fill="currentColor"></path><path d="M26.018 10c0 7.742-6.276 14.018-14.018 14.018C12 16.276 18.276 10 26.018 10zM12 24.018c7.742 0 14.018 6.276 14.018 14.018C18.276 38.036 12 31.76 12 24.018zm14.018 14.018c0-7.742 6.276-14.018 14.018-14.018 0 7.742-6.276 14.018-14.018 14.018zm12.85-26.868c0 6.452-5.23 11.682-11.682 11.682 0-6.452 5.23-11.682 11.681-11.682z" fill="#ffff"></path></svg>